Coordinates
version=1
nRows=11
nColumns=36
inDegrees=yes

Units are S.I. units (second, meters, Newtons, ...)
If the header above contains a line with 'inDegrees', this indicates whether rotational values are in degrees (yes) or radians (no).

endheader
time	pelvis_tilt	pelvis_list	pelvis_rotation	pelvis_tx	pelvis_ty	pelvis_tz	hip_flexion_r	hip_adduction_r	hip_rotation_r	knee_angle_r	knee_angle_r_beta	ankle_angle_r	subtalar_angle_r	mtp_angle_r	hip_flexion_l	hip_adduction_l	hip_rotation_l	knee_angle_l	knee_angle_l_beta	ankle_angle_l	subtalar_angle_l	mtp_angle_l	lumbar_extension	lumbar_bending	lumbar_rotation	arm_flex_r	arm_add_r	arm_rot_r	elbow_flex_r	pro_sup_r	arm_flex_l	arm_add_l	arm_rot_l	elbow_flex_l	pro_sup_l
      2.83333330	     -3.45062156	      0.26270880	      9.73247763	      0.55518057	      0.88292569	     -0.12956154	     26.43945079	     -1.82286557	      5.32257950	     41.91974531	      0.73163758	     24.60606805	     -7.93599126	     -7.49999987	     24.98057534	      0.63921669	     -4.84049811	     41.16381261	      0.71844406	     17.42115444	    -18.43283643	     -7.49999987	     -6.14489652	     -3.01851006	      4.11834031	     13.03283728	    -13.81905602	     18.64669056	     54.85387048	     84.56005636	      1.30391741	    -14.19452079	     24.29684239	     57.32116313	     83.67200876
      2.85000000	     -3.06818218	      0.44185662	      9.38771142	      0.55910177	      0.89406518	     -0.12680236	     24.06788784	     -1.80518291	      5.61653301	     38.32143877	      0.66883528	     22.95404458	     -7.64891587	     -7.49999987	     22.06379845	      0.77083845	     -5.35996164	     36.75923791	      0.64156973	     15.87840319	    -18.00934376	     -7.49999987	     -5.56129966	     -3.16752982	      4.50696294	     11.82128322	    -14.00334677	     19.18115788	     54.92399983	     84.28958532	      0.22593774	    -14.35955775	     24.43276927	     55.14740189	     83.48997043
      2.86666670	     -2.93061147	      0.31940084	      8.98763693	      0.56351215	      0.89992041	     -0.12992088	     21.83211335	     -1.61647474	      5.85176217	     34.51133339	      0.60233640	     21.72441113	     -7.31759833	     -7.49999987	     19.92129889	      0.71444542	     -5.73861329	     33.39223512	      0.58280445	     14.72076120	    -17.52995045	     -7.49999987	     -4.59841541	     -2.91320767	      4.80488088	     10.29719271	    -14.38775356	     19.90625245	     55.33936631	     84.60173857	     -0.90940533	    -14.49055657	     24.60541820	     53.24502000	     83.87052908
      2.88333330	     -2.86449380	      0.24824529	      8.56114743	      0.56400106	      0.91011225	     -0.13088113	     19.36941577	     -1.55619892	      6.26519861	     30.09545659	      0.52526481	     19.93714431	     -6.66680703	     -7.49999987	     17.91417230	      0.73782256	     -6.17714211	     29.97640532	      0.52318697	     13.16581921	    -16.90652985	     -7.49999987	     -3.67349903	     -2.69791784	      5.12930701	      8.57862453	    -14.55737927	     20.51904502	     55.60729799	     84.23696484	     -1.75410776	    -14.54686185	     24.66715385	     51.44860823	     83.55157442
      2.90000000	     -3.00768647	      0.28082796	      8.11728313	      0.56450812	      0.91515858	     -0.13078410	     17.36994668	     -1.64239088	      6.83915575	     25.89707023	      0.45198914	     17.93118167	     -6.29938208	     -7.49999987	     15.76448397	      1.10439177	     -6.01132564	     25.99320660	      0.45366704	     11.63981149	    -16.42280166	     -7.49999987	     -2.71272342	     -2.62894743	      5.65658983	      7.20477862	    -14.66784898	     21.09378984	     55.64687603	     83.77592086	     -2.61286531	    -14.73462904	     24.93126695	     50.12329946	     83.15985486
      2.91666670	     -3.26529576	      0.21017598	      7.72931301	      0.56912956	      0.91723253	     -0.13397480	     15.87236225	     -1.80183223	      7.12671993	     22.64028033	      0.39514744	     16.53590688	     -5.59695004	     -7.49999987	     13.97767558	      1.44398582	     -6.01819697	     22.41621459	      0.39123675	     10.72630233	    -15.75025215	     -7.49999987	     -1.43538042	     -2.42161720	      5.87548978	      5.92634607	    -14.64959520	     21.55110182	     55.35489043	     84.35211760	     -3.55480427	    -14.83359803	     25.09988559	     49.19394857	     83.71344007
      2.93333330	     -3.09475555	      0.23391199	      7.40934427	      0.56871236	      0.92697943	     -0.13370493	     14.17922137	     -1.92091438	      7.65753221	     19.63577381	      0.34270890	     14.62730342	     -5.64325430	     -7.49999987	     11.94557069	      1.74785429	     -5.95404374	     18.99254543	      0.33148245	      8.99782322	    -15.73209600	     -7.49999987	     -1.23043220	     -2.26671212	      6.11834183	      4.81516452	    -14.82588738	     21.98262152	     55.67912887	     82.55953747	     -3.90052146	    -14.83531979	     25.46834129	     47.58881925	     81.94876755
      2.95000000	     -3.11389610	      0.19447210	      7.34633306	      0.56870492	      0.92805963	     -0.13358016	     13.12559518	     -2.05216557	      7.70190351	     17.47965518	      0.30507754	     13.35818032	     -5.27958518	     -7.49999987	     10.76146351	      1.98664725	     -5.85429873	     16.42109550	      0.28660218	      7.68493942	    -15.87904927	     -7.49999987	     -0.87594938	     -2.08880409	      6.07890143	      3.96311610	    -14.57434704	     21.78644207	     55.22934556	     82.03155665	     -4.41918776	    -14.88731737	     25.31037994	     46.06149378	     81.35379698
      2.96666670	     -3.36315319	      0.15335122	      7.35921806	      0.56922317	      0.92753996	     -0.13367359	     12.38957480	     -2.12071540	      7.77248416	     15.47763666	      0.27013572	     12.36686552	     -5.09309453	     -7.49999987	     10.11069046	      2.12571876	     -6.04582597	     14.42748999	      0.25180720	      6.76153502	    -15.59794257	     -7.49999987	     -0.24346971	     -2.00215853	      5.97214092	      2.82685273	    -14.30240376	     21.28580732	     54.63572543	     81.55279905	     -4.54957986	    -14.82789233	     25.48192730	     43.75481385	     80.77977785
      2.98333330	     -3.57309447	      0.11651314	      7.46364900	      0.56905700	      0.93127328	     -0.13326299	     11.46559851	     -2.24421855	      7.53765385	     13.20889612	      0.23053873	     11.59676204	     -4.29509787	     -7.49999987	      9.43842353	      2.19766426	     -6.48345126	     12.47274569	      0.21769048	      6.04570002	    -14.78717650	     -7.49999987	      0.28685785	     -1.96501661	      5.82661575	      1.91635002	    -14.02753298	     20.80918878	     53.52341317	     80.89933691	     -4.62590253	    -14.90410788	     25.58154453	     41.99546131	     80.08210565
      3.00000000	     -3.58673289	      0.00622919	      7.78403759	      0.57342659	      0.92908224	     -0.13751143	     10.07161918	     -2.40247992	      6.87904185	     10.68323268	      0.18645759	     10.90379736	     -2.99005850	     -7.49999987	      8.37000228	      2.29058205	     -7.09227668	     10.34741993	      0.18059655	      5.64320675	    -13.47041531	     -7.49999987	      0.91422159	     -1.70200087	      5.57484656	      0.91360086	    -13.87260072	     20.13459791	     51.93742474	     80.67209199	     -4.53116004	    -14.77684655	     26.02587124	     40.11081880	     79.86912638
